<svg xmlns="http://www.w3.org/2000/svg" viewBox="0 0 64 64" fill="none">
  <path d="M32 20a12 12 0 100 24 12 12 0 000-24zm0 18a6 6 0 110-12 6 6 0 010 12z" fill="currentColor"/>
  <path d="M58 34h-4.2a22 22 0 00-1.4-3.4l3-3a2 2 0 000-2.8l-3.4-3.4a2 2 0 00-2.8 0l-3 3A22 22 0 0042.4 24V20a2 2 0 00-2-2h-4.8a2 2 0 00-2 2v4.2a22 22 0 00-3.4 1.4l-3-3a2 2 0 00-2.8 0l-3.4 3.4a2 2 0 000 2.8l3 3a22 22 0 00-1.4 3.4H14a2 2 0 00-2 2v4.8a2 2 0 002 2h4.2a22 22 0 001.4 3.4l-3 3a2 2 0 000 2.8l3.4 3.4a2 2 0 002.8 0l3-3a22 22 0 003.4 1.4V54a2 2 0 002 2h4.8a2 2 0 002-2v-4.2a22 22 0 003.4-1.4l3 3a2 2 0 002.8 0l3.4-3.4a2 2 0 000-2.8l-3-3a22 22 0 001.4-3.4H58a2 2 0 002-2v-4.8a2 2 0 00-2-2z" fill="currentColor"/>
</svg>